<svg width="40" height="38" viewBox="0 0 40 38" fill="none" xmlns="http://www.w3.org/2000/svg">
<rect width="40" height="38" rx="7" fill="#F0F8FF"/>
<path fill-rule="evenodd" clip-rule="evenodd" d="M17.2693 8.14286C17.2693 7.51168 17.7766 7 18.4024 7C19.0282 7 19.5355 7.51168 19.5355 8.14286V15.6695L22.1337 13.049C22.5762 12.6027 23.2937 12.6027 23.7362 13.049C24.1787 13.4953 24.1787 14.2189 23.7362 14.6653L19.2037 19.2367C18.7612 19.683 18.0437 19.683 17.6012 19.2367L13.0687 14.6653C12.6262 14.2189 12.6262 13.4953 13.0687 13.049C13.5111 12.6027 14.2286 12.6027 14.6711 13.049L17.2693 15.6695V8.14286ZM32 9.28571C32 8.65454 31.4927 8.14286 30.8669 8.14286H30.3316C28.7986 8.14286 27.4553 9.17768 27.052 10.6693L26.5803 12.4136L24.3357 20.7143H12.4693L10.2266 12.4138C10.0621 11.8048 9.43923 11.4457 8.8355 11.6116C8.23165 11.7776 7.87562 12.4058 8.04015 13.0148L10.2827 21.3152C10.5515 22.3099 11.4471 23 12.4693 23H24.0681V24.1429C24.0681 24.7741 23.5608 25.2857 22.9349 25.2857H14.4365H12.7368C12.1109 25.2857 11.6036 25.7974 11.6036 26.4286C11.6036 26.6709 11.6784 26.8955 11.8059 27.0805C11.6755 27.4089 11.6036 27.7674 11.6036 28.1429C11.6036 29.7208 12.8719 31 14.4365 31C16.001 31 17.2693 29.7208 17.2693 28.1429C17.2693 27.9472 17.2498 27.7561 17.2126 27.5714H20.7253C20.6882 27.7561 20.6687 27.9472 20.6687 28.1429C20.6687 29.7208 21.937 31 23.5015 31C25.066 31 26.3343 29.7208 26.3343 28.1429C26.3343 27.4149 26.0644 26.7504 25.6199 26.2459C26.0677 25.6653 26.3343 24.9354 26.3343 24.1429V22.0102L28.7667 13.015L29.2384 11.2707C29.3728 10.7735 29.8206 10.4286 30.3316 10.4286H30.8669C31.4927 10.4286 32 9.91689 32 9.28571ZM15.003 28.1429C15.003 27.8273 14.7493 27.5714 14.4365 27.5714C14.1236 27.5714 13.8699 27.8273 13.8699 28.1429C13.8699 28.4584 14.1236 28.7143 14.4365 28.7143C14.7493 28.7143 15.003 28.4584 15.003 28.1429ZM24.0681 28.1429C24.0681 27.8273 23.8144 27.5714 23.5015 27.5714C23.1886 27.5714 22.9349 27.8273 22.9349 28.1429C22.9349 28.4584 23.1886 28.7143 23.5015 28.7143C23.8144 28.7143 24.0681 28.4584 24.0681 28.1429Z" fill="#0C0C0C"/>
</svg>
