<svg width="24" height="24" viewBox="0 0 24 24" fill="none" xmlns="http://www.w3.org/2000/svg">
<path d="M21.8704 8.5436C20.5355 7.5189 18.768 6.95456 16.8933 6.95456C15.7597 6.95456 14.6656 7.16125 13.6824 7.55088C13.191 6.61552 12.3712 5.78718 11.3283 5.18439C10.1005 4.47462 8.64064 4.09949 7.10679 4.09949C5.2321 4.09949 3.46457 4.66383 2.12968 5.68853C0.756294 6.74267 0 8.15627 0 9.66881C0 11.0311 0.623167 12.3276 1.76013 13.3428L1.77948 16.6614C1.78046 16.8346 1.86833 17.0027 2.02247 17.0816C2.20545 17.1754 2.37997 17.153 2.50795 17.0862L5.95063 15.1648C6.33233 15.2136 6.72034 15.2383 7.10679 15.2383C7.10689 15.2383 7.10699 15.2383 7.10709 15.2383C8.22627 15.2383 9.32444 15.0329 10.3135 14.642C10.6745 15.3334 11.2146 15.9659 11.9161 16.5044C13.251 17.5291 15.0186 18.0934 16.8933 18.0934C17.2816 18.0934 17.6718 18.0684 18.0555 18.0191L21.5025 19.8358C21.6981 19.9354 21.8431 19.9111 21.9826 19.8226C22.1271 19.7309 22.2196 19.5765 22.2206 19.4054L22.24 16.1979C23.3768 15.1828 24 13.8862 24 12.524C24 11.0114 23.2437 9.59789 21.8704 8.5436ZM7.10704 14.2586C7.10694 14.2586 7.10674 14.2586 7.10674 14.2586C6.7079 14.2586 6.3072 14.2292 5.91585 14.1712C5.77572 14.1505 5.64073 14.1911 5.53807 14.2731L2.75412 15.827L2.73845 13.124C2.73864 13.1142 2.73845 13.1043 2.73796 13.0944C2.73154 12.9568 2.66753 12.8282 2.56144 12.7403C1.54144 11.8938 0.979592 10.803 0.979592 9.66881C0.979592 7.13799 3.72828 5.07903 7.10679 5.07903C9.60985 5.07903 11.8728 6.24827 12.7959 7.96892C12.4861 8.14035 12.1918 8.33201 11.916 8.5436C10.5427 9.59784 9.78642 11.0114 9.78642 12.524C9.78642 12.9356 9.84294 13.3398 9.95211 13.7316C9.07773 14.0771 8.10328 14.2586 7.10704 14.2586ZM21.4385 15.5954C21.3325 15.6834 21.2685 15.8121 21.2621 15.9497C21.2616 15.9586 21.2615 15.9674 21.2615 15.9763L21.2458 18.5932L18.453 17.1213C18.3515 17.0439 18.2203 17.0061 18.084 17.0263C17.6926 17.0844 17.2919 17.1139 16.8932 17.1139C14.1264 17.1139 11.7825 15.7329 11.0242 13.8429C11.0211 13.8337 11.0171 13.8247 11.0133 13.8156C10.8526 13.4057 10.7659 12.9723 10.7659 12.524C10.7659 10.8956 11.9041 9.46261 13.6156 8.64768C13.6169 8.64719 13.6181 8.6469 13.6194 8.64641C13.6385 8.63887 13.6567 8.62985 13.6744 8.62021C14.6103 8.18556 15.7132 7.93415 16.8932 7.93415C20.2717 7.93415 23.0204 9.99315 23.0204 12.524C23.0204 13.6581 22.4586 14.7489 21.4385 15.5954Z" fill="#F0F8FF"/>
<path d="M19.7705 10.8829H14.0157C13.7452 10.8829 13.5259 11.1022 13.5259 11.3727C13.5259 11.6432 13.7452 11.8625 14.0157 11.8625H19.7705C20.0409 11.8625 20.2603 11.6432 20.2603 11.3727C20.2603 11.1022 20.041 10.8829 19.7705 10.8829Z" fill="#F0F8FF"/>
<path d="M19.7705 13.1005H14.0157C13.7452 13.1005 13.5259 13.3197 13.5259 13.5903C13.5259 13.8608 13.7452 14.0801 14.0157 14.0801H19.7705C20.0409 14.0801 20.2603 13.8608 20.2603 13.5903C20.2603 13.3197 20.041 13.1005 19.7705 13.1005Z" fill="#F0F8FF"/>
<path d="M21.8704 8.5436C20.5355 7.5189 18.768 6.95456 16.8933 6.95456C15.7597 6.95456 14.6656 7.16125 13.6824 7.55088C13.191 6.61552 12.3712 5.78718 11.3283 5.18439C10.1005 4.47462 8.64064 4.09949 7.10679 4.09949C5.2321 4.09949 3.46457 4.66383 2.12968 5.68853C0.756294 6.74267 0 8.15627 0 9.66881C0 11.0311 0.623167 12.3276 1.76013 13.3428L1.77948 16.6614C1.78046 16.8346 1.86833 17.0027 2.02247 17.0816C2.20545 17.1754 2.37997 17.153 2.50795 17.0862L5.95063 15.1648C6.33233 15.2136 6.72034 15.2383 7.10679 15.2383C7.10689 15.2383 7.10699 15.2383 7.10709 15.2383C8.22627 15.2383 9.32444 15.0329 10.3135 14.642C10.6745 15.3334 11.2146 15.9659 11.9161 16.5044C13.251 17.5291 15.0186 18.0934 16.8933 18.0934C17.2816 18.0934 17.6718 18.0684 18.0555 18.0191L21.5025 19.8358C21.6981 19.9354 21.8431 19.9111 21.9826 19.8226C22.1271 19.7309 22.2196 19.5765 22.2206 19.4054L22.24 16.1979C23.3768 15.1828 24 13.8862 24 12.524C24 11.0114 23.2437 9.59789 21.8704 8.5436ZM7.10704 14.2586C7.10694 14.2586 7.10674 14.2586 7.10674 14.2586C6.7079 14.2586 6.3072 14.2292 5.91585 14.1712C5.77572 14.1505 5.64073 14.1911 5.53807 14.2731L2.75412 15.827L2.73845 13.124C2.73864 13.1142 2.73845 13.1043 2.73796 13.0944C2.73154 12.9568 2.66753 12.8282 2.56144 12.7403C1.54144 11.8938 0.979592 10.803 0.979592 9.66881C0.979592 7.13799 3.72828 5.07903 7.10679 5.07903C9.60985 5.07903 11.8728 6.24827 12.7959 7.96892C12.4861 8.14035 12.1918 8.33201 11.916 8.5436C10.5427 9.59784 9.78642 11.0114 9.78642 12.524C9.78642 12.9356 9.84294 13.3398 9.95211 13.7316C9.07773 14.0771 8.10328 14.2586 7.10704 14.2586ZM21.4385 15.5954C21.3325 15.6834 21.2685 15.8121 21.2621 15.9497C21.2616 15.9586 21.2615 15.9674 21.2615 15.9763L21.2458 18.5932L18.453 17.1213C18.3515 17.0439 18.2203 17.0061 18.084 17.0263C17.6926 17.0844 17.2919 17.1139 16.8932 17.1139C14.1264 17.1139 11.7825 15.7329 11.0242 13.8429C11.0211 13.8337 11.0171 13.8247 11.0133 13.8156C10.8526 13.4057 10.7659 12.9723 10.7659 12.524C10.7659 9.94363 13.5576 7.93415 16.8932 7.93415C20.2287 7.93415 23.0204 9.99315 23.0204 12.524C23.0204 13.6581 22.4586 14.7489 21.4385 15.5954Z" fill="#F0F8FF"/>
<path d="M19.7705 10.8829H14.0157C13.7452 10.8829 13.5259 11.1022 13.5259 11.3727C13.5259 11.6432 13.7452 11.8625 14.0157 11.8625H19.7705C20.0409 11.8625 20.2603 11.6432 20.2603 11.3727C20.2603 11.1022 20.041 10.8829 19.7705 10.8829Z" fill="#F0F8FF"/>
<path d="M19.7705 13.1005H14.0157C13.7452 13.1005 13.5259 13.3197 13.5259 13.5903C13.5259 13.8608 13.7452 14.0801 14.0157 14.0801H19.7705C20.0409 14.0801 20.2603 13.8608 20.2603 13.5903C20.2603 13.3197 20.041 13.1005 19.7705 13.1005Z" fill="#F0F8FF"/>
</svg>
