<svg width="60" height="60" viewBox="0 0 60 60" fill="none" xmlns="http://www.w3.org/2000/svg">
<path d="M50.145 24.3064C52.5162 22.9715 53.702 22.304 54.351 21.2285C55 20.1531 55 18.8558 55 16.2612V14.5367C55 11.2196 55 9.561 53.9017 8.5305C52.8032 7.5 51.0355 7.5 47.5 7.5H12.5C8.96447 7.5 7.1967 7.5 6.09835 8.5305C5 9.561 5 11.2196 5 14.5367V16.2612C5 18.8558 5 20.1531 5.649 21.2285C6.298 22.304 7.48367 22.9715 9.85505 24.3064L17.1376 28.406C18.7286 29.3015 19.5242 29.7495 20.0938 30.244C21.28 31.2737 22.0102 32.4838 22.3411 33.968C22.5 34.6805 22.5 35.5145 22.5 37.1823V43.856C22.5 46.13 22.5 47.2667 23.1298 48.1532C23.7596 49.0395 24.8782 49.4768 27.1155 50.3515C31.812 52.1875 34.1602 53.1055 35.8302 52.061C37.5 51.0165 37.5 48.6298 37.5 43.856V37.1823C37.5 35.5145 37.5 34.6805 37.659 33.968C37.9897 32.4838 38.72 31.2737 39.9062 30.244" stroke="#0C0C0C" stroke-width="3.75" stroke-linecap="round"/>
</svg>
