<svg width="30" height="30" viewBox="0 0 30 30" fill="none" xmlns="http://www.w3.org/2000/svg">
<path fill-rule="evenodd" clip-rule="evenodd" d="M27.3475 0V22.9412H23.8181V28.2353H26.4651V30H7.05337C5.76513 30 4.52984 29.4353 3.69866 28.4471C3.0122 27.6353 2.6416 26.6294 2.6416 25.5882V4.41177C2.6416 1.97647 4.61807 0 7.05337 0H27.3475ZM22.0534 22.9412H7.24748C5.85337 22.9412 4.6516 23.8765 4.4416 25.1294C4.4222 25.2706 4.4063 25.4117 4.4063 25.5529V25.5882C4.4063 26.2235 4.61807 26.8059 5.0416 27.3C5.55337 27.9 6.2769 28.2353 7.05337 28.2353H22.0534V26.4706H6.40043V24.7059H22.0534V22.9412ZM25.5828 1.7647H7.05337C5.60454 1.7647 4.4063 2.94705 4.4063 4.41177V22.1118C5.20043 21.5294 6.1869 21.1765 7.24748 21.1765H25.5828L25.5828 1.7647ZM21.1705 14.1177V15.8824H8.81754V14.1176H21.1705V14.1177ZM22.0528 5.29414V12.353H7.93521V5.29413H22.0529L22.0528 5.29414ZM20.2881 7.05883H9.6999V10.5883H20.2881V7.05883Z" fill="#F0F8FF"/>
</svg>
