<svg width="35" height="35" viewBox="0 0 35 35" fill="none" xmlns="http://www.w3.org/2000/svg">
<rect x="0.5" y="-0.5" width="34" height="34" rx="17" transform="matrix(1 0 0 -1 0 34)" fill="#F0F8FF"/>
<rect x="0.5" y="-0.5" width="34" height="34" rx="17" transform="matrix(1 0 0 -1 0 34)" stroke="black"/>
<path fill-rule="evenodd" clip-rule="evenodd" d="M17.4997 30.625C18.3051 30.625 18.958 29.9721 18.958 29.1667V9.35404L26.6768 17.0729C27.2463 17.6423 28.1697 17.6423 28.7392 17.0729C29.3087 16.5034 29.3087 15.58 28.7392 15.0105L18.5309 4.80214C17.9614 4.23266 17.038 4.23266 16.4685 4.80214L6.26014 15.0105C5.69063 15.58 5.69063 16.5034 6.26014 17.0729C6.82966 17.6423 7.75302 17.6423 8.32254 17.0729L16.0413 9.35404V29.1667C16.0413 29.9721 16.6942 30.625 17.4997 30.625Z" fill="#0C0C0C"/>
</svg>
